{
  "source": "C:\\Users\\Peter\\Desktop\\stuff\\MIUN\\quantitative_research\\video_compression\\videos\\BVI-HD\\BVI-HD_CDVL_videos\\ORIG\\TreeTrunk_1920x1080_50fps.mp4",
  "output": "C:\\Users\\Peter\\Desktop\\stuff\\MIUN\\quantitative_research\\video_compression\\compressed_videos\\BVI-HD\\av1\\2.5\\TreeTrunk_1920x1080_50fps_av1.mkv",
  "codec": "av1",
  "ok": "Input #0, mov,mp4,m4a,3gp,3g2,mj2, from 'C:\\Users\\Peter\\Desktop\\stuff\\MIUN\\quantitative_research\\video_compression\\videos\\BVI-HD\\BVI-HD_CDVL_videos\\ORIG\\TreeTrunk_1920x1080_50fps.mp4':\n  Metadata:\n    major_brand     : isom\n    minor_version   : 512\n    compatible_brands: isomiso2avc1mp41\n    encoder         : Lavf54.28.101\n  Duration: 00:00:05.00, start: 0.000000, bitrate: 622415 kb/s\n  Stream #0:0[0x1](und): Video: h264 (High 4:4:4 Predictive) (avc1 / 0x31637661), yuv420p(progressive), 1920x1080, 622410 kb/s, 50 fps, 50 tbr, 50 tbn (default)\n    Metadata:\n      handler_name    : VideoHandler\n      vendor_id       : [0][0][0][0]\n[out#0/matroska @ 000002da3ca8f0c0] Codec AVOption b:a (set bitrate (in bits/s)) has not been used for any stream. The most likely reason is either wrong type (e.g. a video option with no video streams) or that it is a private option of some decoder which was not actually used for any stream.\nStream mapping:\n  Stream #0:0 -> #0:0 (h264 (native) -> av1 (libsvtav1))\nPress [q] to stop, [?] for help\nSvt[info]: -------------------------------------------\nSvt[info]: SVT [version]:\tSVT-AV1 Encoder Lib v3.1.0-19-g6ecfe8ec\nSvt[info]: SVT [build]  :\tGCC 15.2.0\t 64 bit\nSvt[info]: LIB Build date: Aug 17 2025 11:37:13\nSvt[info]: -------------------------------------------\nSvt[info]: Level of Parallelism: 5\nSvt[info]: Number of PPCS 93\nSvt[info]: [asm level on system : up to avx2]\nSvt[info]: [asm level selected : up to avx2]\nSvt[info]: -------------------------------------------\nSvt[info]: SVT [config]: main profile\ttier (auto)\tlevel (auto)\nSvt[info]: SVT [config]: width / height / fps numerator / fps denominator \t\t: 1920 / 1080 / 50 / 1\nSvt[info]: SVT [config]: bit-depth / color format \t\t\t\t\t: 8 / YUV420\nSvt[info]: SVT [config]: preset / tune / pred struct \t\t\t\t\t: 4 / PSNR / random access\nSvt[info]: SVT [config]: gop size / mini-gop size / key-frame type \t\t\t: 321 / 16 / key frame\nSvt[info]: SVT [config]: BRC mode / target bitrate (kbps)\t\t\t\t: VBR / 2500 \nSvt[info]: SVT [config]: AQ mode / Variance Boost \t\t\t\t\t: 2 / 0\nSvt[info]: SVT [config]: sharpness / luminance-based QP bias \t\t\t\t: 0 / 0\nSvt[info]: SVT [config]: QP scale compress strength \t\t\t\t\t: 0\nSvt[info]: -------------------------------------------\nOutput #0, matroska, to 'C:\\Users\\Peter\\Desktop\\stuff\\MIUN\\quantitative_research\\video_compression\\compressed_videos\\BVI-HD\\av1\\2.5\\TreeTrunk_1920x1080_50fps_av1.mkv':\n  Metadata:\n    major_brand     : isom\n    minor_version   : 512\n    compatible_brands: isomiso2avc1mp41\n    encoder         : Lavf62.3.100\n  Stream #0:0(und): Video: av1 (AV01 / 0x31305641), yuv420p(tv, progressive), 1920x1080, q=2-31, 2500 kb/s, 50 fps, 1k tbn (default)\n    Metadata:\n      encoder         : Lavc62.11.100 libsvtav1\n      handler_name    : VideoHandler\n      vendor_id       : [0][0][0][0]\n    Side data:\n      cpb: bitrate max/min/avg: 0/0/2500000 buffer size: 2500000 vbv_delay: N/A\nframe=    0 fps=0.0 q=0.0 size=       0KiB time=N/A bitrate=N/A speed=N/A elapsed=0:00:01.84    \nframe=    0 fps=0.0 q=0.0 size=       0KiB time=N/A bitrate=N/A speed=N/A elapsed=0:00:02.49    \nframe=    0 fps=0.0 q=0.0 size=       0KiB time=N/A bitrate=N/A speed=N/A elapsed=0:00:03.07    \nframe=    0 fps=0.0 q=0.0 size=       0KiB time=N/A bitrate=N/A speed=N/A elapsed=0:00:03.74    \nframe=    0 fps=0.0 q=0.0 size=       0KiB time=N/A bitrate=N/A speed=N/A elapsed=0:00:04.29    \nframe=    0 fps=0.0 q=0.0 size=       0KiB time=N/A bitrate=N/A speed=N/A elapsed=0:00:04.80    \nframe=    0 fps=0.0 q=0.0 size=       0KiB time=N/A bitrate=N/A speed=N/A elapsed=0:00:05.33    \nframe=    0 fps=0.0 q=0.0 size=       0KiB time=N/A bitrate=N/A speed=N/A elapsed=0:00:05.88    \nframe=    1 fps=0.2 q=21.0 size=       1KiB time=00:00:00.00 bitrate=N/A speed=   0x elapsed=0:00:06.46    \nframe=    1 fps=0.1 q=21.0 size=       1KiB time=00:00:00.00 bitrate=N/A speed=   0x elapsed=0:00:07.10    \nframe=    1 fps=0.1 q=21.0 size=       1KiB time=00:00:00.00 bitrate=N/A speed=   0x elapsed=0:00:07.63    \nframe=    3 fps=0.4 q=49.0 size=       1KiB time=00:00:00.02 bitrate= 285.2kbits/s speed=0.00245x elapsed=0:00:08.16    \nframe=    9 fps=1.0 q=43.0 size=       1KiB time=00:00:00.14 bitrate=  40.7kbits/s speed=0.016x elapsed=0:00:08.72    \nframe=   13 fps=1.4 q=47.0 size=       1KiB time=00:00:00.24 bitrate=  23.8kbits/s speed=0.0255x elapsed=0:00:09.41    \nframe=   13 fps=1.3 q=47.0 size=       1KiB time=00:00:00.24 bitrate=  23.8kbits/s speed=0.0239x elapsed=0:00:10.05    \nframe=   15 fps=1.4 q=50.0 size=       1KiB time=00:00:00.26 bitrate=  21.9kbits/s speed=0.0244x elapsed=0:00:10.64    \nframe=   21 fps=1.9 q=45.0 size=       1KiB time=00:00:00.40 bitrate=  14.3kbits/s speed=0.0357x elapsed=0:00:11.20    \nframe=   26 fps=2.2 q=51.0 size=       1KiB time=00:00:00.50 bitrate=  11.4kbits/s speed=0.0421x elapsed=0:00:11.88    \nframe=   29 fps=2.3 q=45.0 size=       1KiB time=00:00:00.56 bitrate=  10.2kbits/s speed=0.0452x elapsed=0:00:12.40    \nframe=   30 fps=2.3 q=51.0 size=       1KiB time=00:00:00.58 bitrate=   9.8kbits/s speed=0.0448x elapsed=0:00:12.93    \nframe=   35 fps=2.6 q=48.0 size=       1KiB time=00:00:00.64 bitrate=   8.9kbits/s speed=0.0476x elapsed=0:00:13.44    \nframe=   40 fps=2.9 q=50.0 size=       1KiB time=00:00:00.76 bitrate=   7.5kbits/s speed=0.0542x elapsed=0:00:14.03    \nframe=   44 fps=3.0 q=50.0 size=       1KiB time=00:00:00.86 bitrate=   6.6kbits/s speed=0.059x elapsed=0:00:14.56    \nframe=   45 fps=3.0 q=45.0 size=       1KiB time=00:00:00.88 bitrate=   6.5kbits/s speed=0.0583x elapsed=0:00:15.08    \nframe=   47 fps=3.0 q=48.0 size=       1KiB time=00:00:00.92 bitrate=   6.2kbits/s speed=0.0589x elapsed=0:00:15.60    \nframe=   54 fps=3.3 q=49.0 size=       1KiB time=00:00:01.06 bitrate=   5.4kbits/s speed=0.0657x elapsed=0:00:16.13    \nframe=   58 fps=3.5 q=49.0 size=       1KiB time=00:00:01.14 bitrate=   5.0kbits/s speed=0.0683x elapsed=0:00:16.69    \nframe=   61 fps=3.5 q=45.0 size=       1KiB time=00:00:01.20 bitrate=   4.8kbits/s speed=0.0695x elapsed=0:00:17.26    \nframe=   61 fps=3.4 q=45.0 size=       1KiB time=00:00:01.20 bitrate=   4.8kbits/s speed=0.0675x elapsed=0:00:17.78    \nframe=   64 fps=3.5 q=50.0 size=       1KiB time=00:00:01.26 bitrate=   4.5kbits/s speed=0.0687x elapsed=0:00:18.32    \nframe=   70 fps=3.7 q=49.0 size=       1KiB time=00:00:01.38 bitrate=   4.1kbits/s speed=0.0732x elapsed=0:00:18.84    \nframe=   76 fps=3.9 q=50.0 size=       1KiB time=00:00:01.50 bitrate=   3.8kbits/s speed=0.0774x elapsed=0:00:19.37    \nframe=   77 fps=3.9 q=44.0 size=       1KiB time=00:00:01.52 bitrate=   3.8kbits/s speed=0.0763x elapsed=0:00:19.90    \nframe=   78 fps=3.8 q=50.0 size=       1KiB time=00:00:01.54 bitrate=   3.7kbits/s speed=0.0753x elapsed=0:00:20.44    \nframe=   86 fps=4.1 q=49.0 size=       1KiB time=00:00:01.70 bitrate=   3.4kbits/s speed=0.081x elapsed=0:00:20.98    \nframe=   91 fps=4.2 q=48.0 size=       1KiB time=00:00:01.80 bitrate=   3.2kbits/s speed=0.0837x elapsed=0:00:21.50    \nframe=   93 fps=4.2 q=45.0 size=       1KiB time=00:00:01.84 bitrate=   3.1kbits/s speed=0.0835x elapsed=0:00:22.02    \nframe=   94 fps=4.2 q=49.0 size=       1KiB time=00:00:01.86 bitrate=   3.1kbits/s speed=0.0824x elapsed=0:00:22.56    \nframe=  101 fps=4.4 q=44.0 size=       1KiB time=00:00:01.98 bitrate=   2.9kbits/s speed=0.0856x elapsed=0:00:23.13    \nframe=  105 fps=4.4 q=39.0 size=       1KiB time=00:00:02.06 bitrate=   2.8kbits/s speed=0.0868x elapsed=0:00:23.73    \nframe=  109 fps=4.5 q=45.0 size=       1KiB time=00:00:02.16 bitrate=   2.6kbits/s speed=0.089x elapsed=0:00:24.27    \nframe=  109 fps=4.4 q=45.0 size=       1KiB time=00:00:02.16 bitrate=   2.6kbits/s speed=0.0871x elapsed=0:00:24.79    \nframe=  112 fps=4.4 q=50.0 size=       1KiB time=00:00:02.22 bitrate=   2.6kbits/s speed=0.0875x elapsed=0:00:25.36    \nframe=  120 fps=4.6 q=49.0 size=       1KiB time=00:00:02.38 bitrate=   2.4kbits/s speed=0.092x elapsed=0:00:25.86    \nframe=  125 fps=4.7 q=45.0 size=       1KiB time=00:00:02.48 bitrate=   2.3kbits/s speed=0.0937x elapsed=0:00:26.45    \nframe=  125 fps=4.6 q=45.0 size=       1KiB time=00:00:02.48 bitrate=   2.3kbits/s speed=0.0919x elapsed=0:00:26.97    \nframe=  128 fps=4.6 q=49.0 size=       1KiB time=00:00:02.52 bitrate=   2.3kbits/s speed=0.0915x elapsed=0:00:27.52    \nframe=  134 fps=4.8 q=49.0 size=       1KiB time=00:00:02.66 bitrate=   2.1kbits/s speed=0.0948x elapsed=0:00:28.06    \nframe=  138 fps=4.8 q=49.0 size=       1KiB time=00:00:02.74 bitrate=   2.1kbits/s speed=0.0958x elapsed=0:00:28.60    \nframe=  141 fps=4.8 q=44.0 size=       1KiB time=00:00:02.80 bitrate=   2.0kbits/s speed=0.0961x elapsed=0:00:29.12    \nframe=  143 fps=4.8 q=47.0 size=       1KiB time=00:00:02.84 bitrate=   2.0kbits/s speed=0.0957x elapsed=0:00:29.66    \nframe=  150 fps=5.0 q=50.0 size=       1KiB time=00:00:02.98 bitrate=   1.9kbits/s speed=0.0987x elapsed=0:00:30.18    \nframe=  159 fps=5.2 q=48.0 size=       1KiB time=00:00:03.16 bitrate=   1.8kbits/s speed=0.103x elapsed=0:00:30.76    \nframe=  161 fps=5.1 q=26.0 size=       1KiB time=00:00:03.20 bitrate=   1.8kbits/s speed=0.102x elapsed=0:00:31.29    \nframe=  161 fps=5.1 q=26.0 size=       1KiB time=00:00:03.20 bitrate=   1.8kbits/s speed=0.101x elapsed=0:00:31.82    \nframe=  169 fps=5.2 q=39.0 size=       1KiB time=00:00:03.36 bitrate=   1.7kbits/s speed=0.104x elapsed=0:00:32.36    \nframe=  177 fps=5.4 q=26.0 size=       1KiB time=00:00:03.52 bitrate=   1.6kbits/s speed=0.107x elapsed=0:00:32.88    \nframe=  177 fps=5.3 q=26.0 size=       1KiB time=00:00:03.52 bitrate=   1.6kbits/s speed=0.105x elapsed=0:00:33.44    \nframe=  181 fps=5.3 q=46.0 size=       1KiB time=00:00:03.60 bitrate=   1.6kbits/s speed=0.106x elapsed=0:00:33.94    \nframe=  189 fps=5.5 q=46.0 size=       1KiB time=00:00:03.76 bitrate=   1.5kbits/s speed=0.109x elapsed=0:00:34.47    \nframe=  193 fps=5.5 q=28.0 size=       1KiB time=00:00:03.84 bitrate=   1.5kbits/s speed=0.11x elapsed=0:00:34.97    \nframe=  193 fps=5.4 q=28.0 size=       1KiB time=00:00:03.84 bitrate=   1.5kbits/s speed=0.108x elapsed=0:00:35.49    \nframe=  193 fps=5.4 q=28.0 size=       1KiB time=00:00:03.84 bitrate=   1.5kbits/s speed=0.107x elapsed=0:00:36.01    \nframe=  197 fps=5.4 q=46.0 size=       1KiB time=00:00:03.92 bitrate=   1.5kbits/s speed=0.107x elapsed=0:00:36.52    \nframe=  205 fps=5.5 q=46.0 size=       1KiB time=00:00:04.08 bitrate=   1.4kbits/s speed=0.11x elapsed=0:00:37.04    \nframe=  209 fps=5.6 q=28.0 size=       1KiB time=00:00:04.16 bitrate=   1.4kbits/s speed=0.111x elapsed=0:00:37.58    \nframe=  217 fps=5.7 q=41.0 size=       1KiB time=00:00:04.32 bitrate=   1.3kbits/s speed=0.113x elapsed=0:00:38.10    \nframe=  225 fps=5.8 q=30.0 size=       1KiB time=00:00:04.48 bitrate=   1.3kbits/s speed=0.116x elapsed=0:00:38.62    \nframe=  225 fps=5.7 q=30.0 size=       1KiB time=00:00:04.48 bitrate=   1.3kbits/s speed=0.114x elapsed=0:00:39.14    \nframe=  231 fps=5.8 q=49.0 size=       1KiB time=00:00:04.60 bitrate=   1.2kbits/s speed=0.116x elapsed=0:00:39.66    \nframe=  247 fps=6.1 q=49.0 size=       1KiB time=00:00:04.88 bitrate=   1.2kbits/s speed=0.121x elapsed=0:00:40.23    \n[out#0/matroska @ 000002da3ca8f0c0] video:1170KiB audio:0KiB subtitle:0KiB other streams:0KiB global headers:0KiB muxing overhead: 0.157796%\nframe=  250 fps=6.2 q=46.0 Lsize=    1172KiB time=00:00:04.98 bitrate=1927.1kbits/s speed=0.124x elapsed=0:00:40.31    \n",
  "seconds": 41.69566464424133,
  "probe_out": {}
}